PathFileType	4	(X/Y/Z)	/Users/itak/Documents/Research/Walk-IL/dataset/trc/00551_00009.trc
DataRate	CameraRate	NumFrames	NumMarkers	Units	OrigDataRate	OrigDataStartFrame	OrigNumFrames
100.000000	100.000000	4	53	mm	100.000000	183	489
Frame#	Time	RPSI			LPSI			L3			STRN			T10			C7			CLAV			RBAK			LBAK			LSHO			LUPA			LAEL			LAOL			LWTS			LWPS			LFRA			LIFD			LHPS			LHTS			RSHO			RUPA			RAEL			RAOL			RWTS			RWPS			RFRA			RIFD			RHTS			RHPS			RBHD			LFHD			RFHD			LBHD			LHIP			RHIP			RASI			LASI			LKNE			LTHI			LANK			LTIP			LTOE			LMT1			LMT5			LHEE			RKNE			RTHI			RANK			RTIP			RTOE			RMT1			RMT5			RHEE			
		X1	Y1	Z1	X2	Y2	Z2	X3	Y3	Z3	X4	Y4	Z4	X5	Y5	Z5	X6	Y6	Z6	X7	Y7	Z7	X8	Y8	Z8	X9	Y9	Z9	X10	Y10	Z10	X11	Y11	Z11	X12	Y12	Z12	X13	Y13	Z13	X14	Y14	Z14	X15	Y15	Z15	X16	Y16	Z16	X17	Y17	Z17	X18	Y18	Z18	X19	Y19	Z19	X20	Y20	Z20	X21	Y21	Z21	X22	Y22	Z22	X23	Y23	Z23	X24	Y24	Z24	X25	Y25	Z25	X26	Y26	Z26	X27	Y27	Z27	X28	Y28	Z28	X29	Y29	Z29	X30	Y30	Z30	X31	Y31	Z31	X32	Y32	Z32	X33	Y33	Z33	X34	Y34	Z34	X35	Y35	Z35	X36	Y36	Z36	X37	Y37	Z37	X38	Y38	Z38	X39	Y39	Z39	X40	Y40	Z40	X41	Y41	Z41	X42	Y42	Z42	X43	Y43	Z43	X44	Y44	Z44	X45	Y45	Z45	X46	Y46	Z46	X47	Y47	Z47	X48	Y48	Z48	X49	Y49	Z49	X50	Y50	Z50	X51	Y51	Z51	X52	Y52	Z52	X53	Y53	Z53	

184	1.83	-426.0393371582031	1007.9638671875	292.2907104492188	-426.4266662597656	1005.141540527344	158.7387084960938	-416.13623046875	1109.359741210938	222.4767150878906	-167.6791534423828	1285.791015625	213.1389770507812	-413.2778015136719	1233.26513671875	222.7065277099609	-353.7231140136719	1503.589477539062	243.3717193603516	-181.90234375	1398.25341796875	219.1520538330078	-422.7363586425781	1379.223999023438	328.5142517089844	-394.59130859375	1455.927734375	152.1600952148438	-299.125732421875	1482.049560546875	67.42452239990234	-320.1097717285156	1362.555541992188	-19.7670783996582	-314.8244934082031	1142.55859375	-56.22758865356445	-402.1197204589844	1136.77880859375	-4.445320129394531	-228.8922424316406	895.6185913085938	-19.63990020751953	-273.40380859375	876.6906127929688	-92.33562469482422	-294.527587890625	1056.093627929688	-67.44769287109375	-236.6703186035156	725.6392211914062	-30.67114448547363	-266.7099304199219	816.4050903320312	-86.10469818115234	-213.8882293701172	819.025390625	-42.14297103881836	-286.8237609863281	1459.481567382812	392.6309814453125	-304.8272399902344	1396.30419921875	460.8592224121094	-319.036865234375	1108.8212890625	509.8599243164062	-373.7883605957031	1090.870971679688	484.6230163574219	-177.3977203369141	894.5538330078125	465.1353759765625	-219.5881958007812	870.834228515625	531.353271484375	-306.5411987304688	1053.353881835938	516.9616088867188	-155.4889221191406	721.7227172851562	468.6420593261719	-144.4382781982422	804.5835571289062	477.4221801757812	-199.8572845458984	797.2764892578125	526.4277954101562	-274.7824096679688	1673.371215820312	312.9297790527344	-128.4715881347656	1707.735107421875	169.4386596679688	-136.8840942382812	1699.20458984375	313.113525390625	-258.1521606445312	1681.671264648438	148.2876281738281	-301.0800476074219	937.3197631835938	25.95259284973145	-297.5350952148438	938.8466186523438	412.0624694824219	-212.5339050292969	970.6243286132812	352.6702575683594	-219.9372406005859	958.9976806640625	77.56414794921875	-153.5764770507812	495.4807739257812	57.97266387939453	-198.5644836425781	661.5074462890625	35.20817184448242	-529.7496337890625	182.8621673583984	56.06071853637695	-356.146728515625	338.0394592285156	51.77653121948242	-366.4288330078125	52.44306945800781	93.30665588378906	-416.5054321289062	96.284423828125	135.6794281005859	-446.0399475097656	100.4641342163086	33.95769500732422	-568.8978271484375	232.6065521240234	114.0758438110352	-228.6822052001953	497.3148498535156	341.2525024414062	-245.9385528564453	785.3506469726562	402.0376586914062	-340.8856506347656	37.16488647460938	301.1311950683594	-232.8776245117188	351.3937072753906	320.4757690429688	-118.5782852172852	41.39988327026367	269.7969360351562	-179.9177703857422	42.7772216796875	225.5592651367188	-208.7174377441406	37.87770843505859	327.2516479492188	-392.1721496582031	34.44370651245117	241.25732421875	
185	1.84	-419.352294921875	1008.604125976562	292.5223693847656	-419.5841979980469	1005.733947753906	158.9970245361328	-409.1585998535156	1110.001831054688	223.1225738525391	-160.3921661376953	1286.250854492188	213.4814147949219	-406.2628173828125	1233.92578125	223.8170471191406	-346.0752868652344	1504.157958984375	244.3867492675781	-174.4696960449219	1398.718627929688	219.3921508789062	-414.8475952148438	1379.90966796875	329.9629516601562	-387.3940734863281	1456.54345703125	153.3867492675781	-292.3853454589844	1482.51953125	68.21990966796875	-314.1443481445312	1363.058715820312	-18.84102058410645	-309.60791015625	1143.067626953125	-55.16837692260742	-396.5739440917969	1137.433227539062	-2.717126369476318	-223.0749816894531	896.3816528320312	-18.79111099243164	-268.0808410644531	877.2194213867188	-91.05775451660156	-289.3370971679688	1056.58154296875	-66.42584228515625	-230.5215759277344	726.3525390625	-29.38819694519043	-261.2918090820312	816.945556640625	-84.737060546875	-208.2129364013672	819.7097778320312	-41.21459197998047	-278.4876708984375	1460.141967773438	393.2708435058594	-296.076416015625	1397.043334960938	461.6889953613281	-308.7772216796875	1109.64453125	511.279296875	-363.7042236328125	1091.428344726562	486.4009399414062	-166.2401123046875	896.091552734375	466.4079895019531	-208.0782775878906	872.2761840820312	532.9141235351562	-296.0851135253906	1054.257934570312	518.506591796875	-143.4279479980469	723.37744140625	470.3486022949219	-132.8131561279297	806.2919311523438	478.8511657714844	-188.1091461181641	798.9407958984375	528.1047973632812	-266.7205505371094	1673.953125	313.4756469726562	-120.5139541625977	1707.917724609375	169.7570953369141	-128.7453308105469	1699.469482421875	313.3966979980469	-250.3174438476562	1682.146484375	148.8219299316406	-293.9490966796875	938.2788696289062	27.25227928161621	-291.6962585449219	939.0198974609375	412.8585510253906	-206.1072540283203	970.7730102539062	353.916748046875	-212.8404235839844	960.0275268554688	78.87730407714844	-137.7136688232422	499.270263671875	59.64528274536133	-186.1795349121094	664.3212280273438	36.03861236572266	-504.5313415527344	175.5739135742188	56.39590835571289	-336.0251770019531	336.2056274414062	52.78359222412109	-336.5734558105469	51.66034317016602	94.16835021972656	-388.28271484375	93.43947601318359	136.2015380859375	-417.3523559570312	96.83580017089844	34.33296966552734	-545.9223022460938	223.7222595214844	114.3072280883789	-227.6834106445312	496.8671569824219	342.0181579589844	-241.4507141113281	785.2100219726562	402.857666015625	-340.91748046875	37.13899993896484	301.1407470703125	-232.5137176513672	351.1357727050781	321.1010437011719	-118.6500701904297	41.41775512695312	269.9252014160156	-179.9802093505859	42.8283576965332	225.6755676269531	-208.8308563232422	37.75537490844727	327.457275390625	-392.1639404296875	34.46427536010742	241.2177276611328	
186	1.85	-412.659423828125	1009.138916015625	292.7239379882812	-412.7375183105469	1006.245178222656	159.2312164306641	-402.1774597167969	1110.501220703125	223.725830078125	-153.0657043457031	1286.588134765625	213.8171539306641	-399.2930908203125	1234.494262695312	224.9088439941406	-338.3994140625	1504.62158203125	245.3638763427734	-166.9981079101562	1399.063110351562	219.6241302490234	-406.9387512207031	1380.491821289062	331.3565063476562	-380.1403503417969	1457.050415039062	154.55078125	-285.5613098144531	1482.856079101562	68.97344970703125	-308.0936584472656	1363.431640625	-17.93542289733887	-304.3447875976562	1143.454956054688	-54.14712524414062	-390.9931335449219	1137.975463867188	-1.062077760696411	-217.2198181152344	897.035400390625	-17.93532180786133	-262.7542114257812	877.6099243164062	-89.77872467041016	-284.1067504882812	1056.941650390625	-65.42721557617188	-224.2934417724609	726.9568481445312	-28.06144332885742	-255.8040924072266	817.3604125976562	-83.35678863525391	-202.5142364501953	820.2756958007812	-40.25088500976562	-270.1297607421875	1460.686279296875	393.8777770996094	-287.3197021484375	1397.6630859375	462.4722290039062	-298.5424499511719	1110.351806640625	512.6279296875	-353.6780090332031	1091.8779296875	488.1175537109375	-155.2000274658203	897.468505859375	467.6238403320312	-196.6957092285156	873.5751342773438	534.4006958007812	-285.7065124511719	1055.041381835938	519.9955444335938	-131.5167694091797	724.8771362304688	471.9699096679688	-121.3221206665039	807.8347778320312	480.2170715332031	-176.4749755859375	800.4432373046875	529.687744140625	-258.6666564941406	1674.427124023438	313.9660034179688	-112.561149597168	1708.015380859375	170.0212554931641	-120.6188507080078	1699.677001953125	313.623779296875	-242.4946594238281	1682.48876953125	149.3092498779297	-286.811279296875	939.08837890625	28.49585342407227	-285.8778381347656	939.1243286132812	413.635498046875	-199.7032775878906	970.8003540039062	355.119140625	-205.7381591796875	960.90771484375	80.13473510742188	-122.2340927124023	503.0458374023438	61.40021896362305	-174.0052642822266	667.09619140625	36.89398193359375	-478.4797973632812	167.4397888183594	56.87420654296875	-315.7108154296875	333.8976745605469	53.85042572021484	-305.7722778320312	50.79275512695312	95.40347290039062	-359.167236328125	90.34548950195312	136.989990234375	-387.7237243652344	92.74142456054688	34.98677444458008	-522.1732788085938	213.9017944335938	114.5847930908203	-226.6432342529297	496.4035339355469	342.7781372070312	-236.9658355712891	785.01904296875	403.6513061523438	-340.9529113769531	37.10886001586914	301.1422424316406	-232.0964813232422	350.8665466308594	321.694580078125	-118.722900390625	41.43430709838867	270.0579528808594	-180.0496978759766	42.87191390991211	225.7958068847656	-208.9353790283203	37.64001846313477	327.6532287597656	-392.1579284667969	34.49384689331055	241.1927185058594	
187	1.86	-405.9449157714844	1009.563659667969	292.9043884277344	-405.8727416992188	1006.669555664062	159.4487915039062	-395.1960754394531	1110.869384765625	224.3143005371094	-145.6953582763672	1286.799926757812	214.1458892822266	-392.3469543457031	1234.967895507812	225.9694976806641	-330.6896667480469	1504.978881835938	246.3028411865234	-159.4861755371094	1399.281372070312	219.8528594970703	-398.9996948242188	1380.971557617188	332.6873779296875	-372.8276977539062	1457.446411132812	155.6565399169922	-278.6483154296875	1483.05712890625	69.68619537353516	-301.9414978027344	1363.671264648438	-17.0490608215332	-299.0101928710938	1143.715698242188	-53.16318130493164	-385.3518371582031	1138.399658203125	0.5137658715248108	-211.3302307128906	897.5616455078125	-17.06379699707031	-257.4166870117188	877.852294921875	-88.49599456787109	-278.8167114257812	1057.1689453125	-64.44310760498047	-218.0160675048828	727.4366455078125	-26.70274353027344	-250.2522430419922	817.6375732421875	-81.96977996826172	-196.779052734375	820.7149658203125	-39.25880432128906	-261.7499084472656	1461.109497070312	394.4554748535156	-278.5581970214844	1398.1591796875	463.2131652832031	-288.3502502441406	1110.9384765625	513.9083862304688	-343.7081909179688	1092.215576171875	489.7765808105469	-144.2981109619141	898.6774291992188	468.7868041992188	-185.4395599365234	874.7254028320312	535.8051147460938	-275.4124450683594	1055.696533203125	521.4293823242188	-119.7583999633789	726.2171020507812	473.4942626953125	-109.9685516357422	809.212646484375	481.511474609375	-164.9513702392578	801.780029296875	531.1719360351562	-250.6147155761719	1674.785522460938	314.4031372070312	-104.613037109375	1708.02978515625	170.2368774414062	-112.5040893554688	1699.823852539062	313.8067932128906	-234.6780853271484	1682.6943359375	149.7507629394531	-279.6595458984375	939.75537109375	29.66843414306641	-280.0330200195312	939.16162109375	414.3814086914062	-193.2923736572266	970.7109375	356.2657775878906	-198.6230621337891	961.6448974609375	81.32145690917969	-107.1730270385742	506.7759094238281	63.21659851074219	-162.0542449951172	669.8121337890625	37.76779174804688	-451.5875244140625	158.6262817382812	57.50814437866211	-295.2186279296875	331.1586303710938	54.97287750244141	-274.1077575683594	49.95903778076172	96.892578125	-329.2442932128906	87.07034301757812	137.9954986572266	-357.2382202148438	88.32913208007812	35.86746215820312	-497.6040649414062	203.2659759521484	114.9551773071289	-225.5404663085938	495.9214477539062	343.5328063964844	-232.4449310302734	784.7728271484375	404.4031372070312	-340.9934692382812	37.0756721496582	301.1337585449219	-231.6294250488281	350.5835876464844	322.2577209472656	-118.7953872680664	41.44870758056641	270.1907043457031	-180.1194000244141	42.91019058227539	225.9167938232422	-209.0248260498047	37.53554153442383	327.83203125	-392.154296875	34.52716827392578	241.1774291992188	
